<svg width="26" height="17" viewBox="0 0 26 17" fill="none" xmlns="http://www.w3.org/2000/svg">
<path d="M2.88889 0.1875H4.33333V16.8125H2.88889C1.29323 16.8125 0 15.7489 0 14.4375V2.5625C0 1.25105 1.29323 0.1875 2.88889 0.1875ZM5.77778 0.1875H20.2222V16.8125H5.77778V0.1875ZM7.94444 9.46484C7.94444 9.79271 8.26782 10.0586 8.66667 10.0586H11.0635V12.0625C11.0635 12.3904 11.387 12.6562 11.7858 12.6562H14.133C14.5318 12.6562 14.8552 12.3904 14.8552 12.0625V10.0586H17.3333C17.7322 10.0586 18.0556 9.79271 18.0556 9.46484V7.53516C18.0556 7.20722 17.7322 6.94141 17.3333 6.94141H14.8958V4.9375C14.8958 4.6096 14.5725 4.34375 14.1736 4.34375H11.8264C11.4276 4.34375 11.1042 4.6096 11.1042 4.9375V6.94141H8.66667C8.26782 6.94141 7.94444 7.20722 7.94444 7.53516V9.46484ZM23.1111 0.1875H21.6667V16.8125H23.1111C24.7068 16.8125 26 15.7489 26 14.4375V2.5625C26 1.25105 24.7045 0.1875 23.1111 0.1875Z" fill="#55D56A"/>
</svg>
