<svg width="614" height="26" viewBox="0 0 614 26" fill="none" xmlns="http://www.w3.org/2000/svg">
<path d="M10 26L0.473724 0.5H19.5263L10 26Z" fill="#603838"/>
<path d="M154 26L144.474 0.5H163.526L154 26Z" fill="#603838"/>
<path d="M298 26L288.474 0.5H307.526L298 26Z" fill="#603838"/>
<path d="M442 26L432.474 0.5H451.526L442 26Z" fill="#603838"/>
<path d="M28 26L18.4737 0.5H37.5263L28 26Z" fill="#603838"/>
<path d="M172 26L162.474 0.5H181.526L172 26Z" fill="#603838"/>
<path d="M316 26L306.474 0.5H325.526L316 26Z" fill="#603838"/>
<path d="M460 26L450.474 0.5H469.526L460 26Z" fill="#603838"/>
<path d="M46 26L36.4737 0.5H55.5263L46 26Z" fill="#603838"/>
<path d="M190 26L180.474 0.5H199.526L190 26Z" fill="#603838"/>
<path d="M334 26L324.474 0.5H343.526L334 26Z" fill="#603838"/>
<path d="M478 26L468.474 0.5H487.526L478 26Z" fill="#603838"/>
<path d="M64 26L54.4737 0.5H73.5263L64 26Z" fill="#603838"/>
<path d="M208 26L198.474 0.5H217.526L208 26Z" fill="#603838"/>
<path d="M352 26L342.474 0.5H361.526L352 26Z" fill="#603838"/>
<path d="M496 26L486.474 0.5H505.526L496 26Z" fill="#603838"/>
<path d="M82 26L72.4737 0.5H91.5263L82 26Z" fill="#603838"/>
<path d="M226 26L216.474 0.5H235.526L226 26Z" fill="#603838"/>
<path d="M370 26L360.474 0.5H379.526L370 26Z" fill="#603838"/>
<path d="M514 26L504.474 0.5H523.526L514 26Z" fill="#603838"/>
<path d="M100 26L90.4737 0.5H109.526L100 26Z" fill="#603838"/>
<path d="M244 26L234.474 0.5H253.526L244 26Z" fill="#603838"/>
<path d="M388 26L378.474 0.5H397.526L388 26Z" fill="#603838"/>
<path d="M532 26L522.474 0.5H541.526L532 26Z" fill="#603838"/>
<path d="M118 26L108.474 0.5H127.526L118 26Z" fill="#603838"/>
<path d="M262 26L252.474 0.5H271.526L262 26Z" fill="#603838"/>
<path d="M406 26L396.474 0.5H415.526L406 26Z" fill="#603838"/>
<path d="M550 26L540.474 0.5H559.526L550 26Z" fill="#603838"/>
<path d="M586 26L576.474 0.5H595.526L586 26Z" fill="#603838"/>
<path d="M136 26L126.474 0.5H145.526L136 26Z" fill="#603838"/>
<path d="M280 26L270.474 0.5H289.526L280 26Z" fill="#603838"/>
<path d="M424 26L414.474 0.5H433.526L424 26Z" fill="#603838"/>
<path d="M568 26L558.474 0.5H577.526L568 26Z" fill="#603838"/>
<path d="M604 26L594.474 0.5H613.526L604 26Z" fill="#603838"/>
</svg>
